<mxfile host="app.diagrams.net" modified="2024-04-10T05:43:18.605Z" agent="Mozilla/5.0 (Windows NT 10.0; Win64; x64) AppleWebKit/537.36 (KHTML, like Gecko) Chrome/123.0.0.0 Safari/537.36 Edg/123.0.0.0" etag="NeQgEGLf48KbxTzbzqVg" version="24.2.3" type="device">
  <diagram id="ZwHfUJIr3DsDhqU88fWU" name="第 1 页">
    <mxGraphModel dx="426" dy="444929" grid="1" gridSize="10" guides="1" tooltips="1" connect="1" arrows="1" fold="1" page="1" pageScale="1" pageWidth="444400" pageHeight="444400" math="0" shadow="0">
      <root>
        <mxCell id="0" />
        <mxCell id="1" parent="0" />
        <mxCell id="6" value="&lt;font style=&quot;font-size: 14px;&quot;&gt;PC&lt;/font&gt;" style="rounded=0;whiteSpace=wrap;html=1;" parent="1" vertex="1">
          <mxGeometry x="60" y="190" width="50" height="70" as="geometry" />
        </mxCell>
        <mxCell id="15" value="" style="group" parent="1" vertex="1" connectable="0">
          <mxGeometry x="210" y="210" width="110" height="170" as="geometry" />
        </mxCell>
        <mxCell id="7" value="" style="rounded=0;whiteSpace=wrap;html=1;" parent="15" vertex="1">
          <mxGeometry width="110" height="170" as="geometry" />
        </mxCell>
        <mxCell id="8" value="R_addr" style="text;html=1;strokeColor=none;fillColor=none;align=center;verticalAlign=middle;whiteSpace=wrap;rounded=0;fontSize=14;" parent="15" vertex="1">
          <mxGeometry width="55" height="28.333333333333332" as="geometry" />
        </mxCell>
        <mxCell id="11" value="inst" style="text;html=1;strokeColor=none;fillColor=none;align=center;verticalAlign=middle;whiteSpace=wrap;rounded=0;fontSize=14;" parent="15" vertex="1">
          <mxGeometry x="82.5" y="141.66666666666666" width="27.5" height="28.333333333333332" as="geometry" />
        </mxCell>
        <mxCell id="14" value="inst_M" style="text;html=1;strokeColor=none;fillColor=none;align=center;verticalAlign=middle;whiteSpace=wrap;rounded=0;fontSize=14;" parent="15" vertex="1">
          <mxGeometry x="27.5" y="66.11111111111111" width="55" height="28.333333333333332" as="geometry" />
        </mxCell>
        <mxCell id="25" value="" style="group" parent="1" vertex="1" connectable="0">
          <mxGeometry x="550" y="325" width="120" height="200" as="geometry" />
        </mxCell>
        <mxCell id="16" value="" style="rounded=0;whiteSpace=wrap;html=1;fontSize=14;" parent="25" vertex="1">
          <mxGeometry width="120" height="200" as="geometry" />
        </mxCell>
        <mxCell id="18" value="R_addr1" style="text;html=1;strokeColor=none;fillColor=none;align=center;verticalAlign=middle;whiteSpace=wrap;rounded=0;fontSize=14;" parent="25" vertex="1">
          <mxGeometry width="60" height="30" as="geometry" />
        </mxCell>
        <mxCell id="19" value="W_data" style="text;html=1;strokeColor=none;fillColor=none;align=center;verticalAlign=middle;whiteSpace=wrap;rounded=0;fontSize=14;" parent="25" vertex="1">
          <mxGeometry y="170" width="60" height="30" as="geometry" />
        </mxCell>
        <mxCell id="20" value="R_addr2" style="text;html=1;strokeColor=none;fillColor=none;align=center;verticalAlign=middle;whiteSpace=wrap;rounded=0;fontSize=14;" parent="25" vertex="1">
          <mxGeometry y="60" width="60" height="30" as="geometry" />
        </mxCell>
        <mxCell id="21" value="W_addr" style="text;html=1;strokeColor=none;fillColor=none;align=center;verticalAlign=middle;whiteSpace=wrap;rounded=0;fontSize=14;" parent="25" vertex="1">
          <mxGeometry y="120" width="60" height="30" as="geometry" />
        </mxCell>
        <mxCell id="22" value="R_data1" style="text;html=1;strokeColor=none;fillColor=none;align=center;verticalAlign=middle;whiteSpace=wrap;rounded=0;fontSize=14;" parent="25" vertex="1">
          <mxGeometry x="60" y="30" width="60" height="30" as="geometry" />
        </mxCell>
        <mxCell id="23" value="R_data2" style="text;html=1;strokeColor=none;fillColor=none;align=center;verticalAlign=middle;whiteSpace=wrap;rounded=0;fontSize=14;" parent="25" vertex="1">
          <mxGeometry x="60" y="90" width="60" height="30" as="geometry" />
        </mxCell>
        <mxCell id="24" value="Register" style="text;html=1;strokeColor=none;fillColor=none;align=center;verticalAlign=middle;whiteSpace=wrap;rounded=0;fontSize=14;" parent="25" vertex="1">
          <mxGeometry x="30" y="150" width="60" height="30" as="geometry" />
        </mxCell>
        <mxCell id="34" value="" style="group" parent="1" vertex="1" connectable="0">
          <mxGeometry x="490" y="620" width="180" height="90" as="geometry" />
        </mxCell>
        <mxCell id="27" value="" style="rounded=0;whiteSpace=wrap;html=1;fontSize=14;" parent="34" vertex="1">
          <mxGeometry width="180" height="90" as="geometry" />
        </mxCell>
        <mxCell id="28" value="inst_field" style="text;html=1;strokeColor=none;fillColor=none;align=center;verticalAlign=middle;whiteSpace=wrap;rounded=0;fontSize=14;" parent="34" vertex="1">
          <mxGeometry width="60" height="30" as="geometry" />
        </mxCell>
        <mxCell id="29" value="imm" style="text;html=1;strokeColor=none;fillColor=none;align=center;verticalAlign=middle;whiteSpace=wrap;rounded=0;fontSize=14;" parent="34" vertex="1">
          <mxGeometry x="120" y="60" width="60" height="30" as="geometry" />
        </mxCell>
        <mxCell id="30" value="ImmGen" style="text;html=1;strokeColor=none;fillColor=none;align=center;verticalAlign=middle;whiteSpace=wrap;rounded=0;fontSize=14;" parent="34" vertex="1">
          <mxGeometry x="70" y="30" width="60" height="30" as="geometry" />
        </mxCell>
        <mxCell id="31" value="sign" style="text;html=1;strokeColor=none;fillColor=none;align=center;verticalAlign=middle;whiteSpace=wrap;rounded=0;fontSize=14;" parent="34" vertex="1">
          <mxGeometry y="60" width="60" height="30" as="geometry" />
        </mxCell>
        <mxCell id="33" value="ImmSell" style="text;html=1;strokeColor=none;fillColor=none;align=center;verticalAlign=middle;whiteSpace=wrap;rounded=0;fontSize=14;" parent="34" vertex="1">
          <mxGeometry y="30" width="60" height="30" as="geometry" />
        </mxCell>
        <mxCell id="40" value="" style="group" parent="1" vertex="1" connectable="0">
          <mxGeometry x="230" y="20" width="70" height="140" as="geometry" />
        </mxCell>
        <mxCell id="36" value="" style="shape=trapezoid;perimeter=trapezoidPerimeter;whiteSpace=wrap;html=1;fixedSize=1;fontSize=14;rotation=90;" parent="40" vertex="1">
          <mxGeometry x="-35" y="35" width="140" height="70" as="geometry" />
        </mxCell>
        <mxCell id="38" value="ADD" style="text;html=1;strokeColor=none;fillColor=none;align=center;verticalAlign=middle;whiteSpace=wrap;rounded=0;fontSize=14;" parent="40" vertex="1">
          <mxGeometry y="20" width="60" height="30" as="geometry" />
        </mxCell>
        <mxCell id="39" value="result" style="text;html=1;strokeColor=none;fillColor=none;align=center;verticalAlign=middle;whiteSpace=wrap;rounded=0;fontSize=14;" parent="40" vertex="1">
          <mxGeometry x="30" y="55" width="40" height="30" as="geometry" />
        </mxCell>
        <mxCell id="46" value="" style="group" parent="1" vertex="1" connectable="0">
          <mxGeometry x="930" y="320" width="70" height="140" as="geometry" />
        </mxCell>
        <mxCell id="42" value="" style="shape=trapezoid;perimeter=trapezoidPerimeter;whiteSpace=wrap;html=1;fixedSize=1;fontSize=14;rotation=90;" parent="46" vertex="1">
          <mxGeometry x="-35" y="35" width="140" height="70" as="geometry" />
        </mxCell>
        <mxCell id="43" value="ALU" style="text;html=1;strokeColor=none;fillColor=none;align=center;verticalAlign=middle;whiteSpace=wrap;rounded=0;fontSize=14;" parent="46" vertex="1">
          <mxGeometry y="60" width="60" height="30" as="geometry" />
        </mxCell>
        <mxCell id="44" value="result" style="text;html=1;strokeColor=none;fillColor=none;align=center;verticalAlign=middle;whiteSpace=wrap;rounded=0;fontSize=14;" parent="46" vertex="1">
          <mxGeometry x="30" y="90" width="40" height="30" as="geometry" />
        </mxCell>
        <mxCell id="45" value="zero" style="text;html=1;strokeColor=none;fillColor=none;align=center;verticalAlign=middle;whiteSpace=wrap;rounded=0;fontSize=14;" parent="46" vertex="1">
          <mxGeometry x="30" y="20" width="40" height="30" as="geometry" />
        </mxCell>
        <mxCell id="49" value="" style="group" parent="1" vertex="1" connectable="0">
          <mxGeometry x="1090" y="20" width="30" height="120" as="geometry" />
        </mxCell>
        <mxCell id="47" value="" style="shape=trapezoid;perimeter=trapezoidPerimeter;whiteSpace=wrap;html=1;fixedSize=1;fontSize=14;rotation=90;" parent="49" vertex="1">
          <mxGeometry x="-45" y="45" width="120" height="30" as="geometry" />
        </mxCell>
        <mxCell id="48" value="M&lt;br&gt;U&lt;br&gt;X" style="text;html=1;strokeColor=none;fillColor=none;align=center;verticalAlign=middle;whiteSpace=wrap;rounded=0;fontSize=14;" parent="49" vertex="1">
          <mxGeometry y="30" width="30" height="60" as="geometry" />
        </mxCell>
        <mxCell id="65" value="" style="endArrow=classic;html=1;fontSize=14;startArrow=none;" parent="1" source="70" target="8" edge="1">
          <mxGeometry width="50" height="50" relative="1" as="geometry">
            <mxPoint x="370" y="140" as="sourcePoint" />
            <mxPoint x="420" y="90" as="targetPoint" />
          </mxGeometry>
        </mxCell>
        <mxCell id="69" value="" style="edgeStyle=segmentEdgeStyle;endArrow=classic;html=1;curved=0;rounded=0;endSize=8;startSize=8;fontSize=14;exitDx=0;exitDy=0;exitPerimeter=0;entryX=0;entryY=0;entryDx=0;entryDy=0;startArrow=none;" parent="1" source="81" target="38" edge="1">
          <mxGeometry width="50" height="50" relative="1" as="geometry">
            <mxPoint x="140" y="220" as="sourcePoint" />
            <mxPoint x="190" y="40" as="targetPoint" />
            <Array as="points">
              <mxPoint x="160" y="40" />
            </Array>
          </mxGeometry>
        </mxCell>
        <mxCell id="71" value="" style="endArrow=none;html=1;fontSize=14;" parent="1" source="6" target="70" edge="1">
          <mxGeometry width="50" height="50" relative="1" as="geometry">
            <mxPoint x="110" y="224.8633879781421" as="sourcePoint" />
            <mxPoint x="210" y="224.31693989071027" as="targetPoint" />
          </mxGeometry>
        </mxCell>
        <mxCell id="70" value="" style="shape=waypoint;sketch=0;fillStyle=solid;size=6;pointerEvents=1;points=[];fillColor=none;resizable=0;rotatable=0;perimeter=centerPerimeter;snapToPoint=1;fontSize=14;" parent="1" vertex="1">
          <mxGeometry x="130" y="214.17000000000002" width="20" height="20" as="geometry" />
        </mxCell>
        <mxCell id="73" value="4" style="text;html=1;strokeColor=none;fillColor=none;align=center;verticalAlign=middle;whiteSpace=wrap;rounded=0;fontSize=14;" parent="1" vertex="1">
          <mxGeometry x="170" y="110" width="20" height="30" as="geometry" />
        </mxCell>
        <mxCell id="74" value="" style="endArrow=classic;html=1;fontSize=14;entryX=0.75;entryY=1;entryDx=0;entryDy=0;" parent="1" source="73" target="36" edge="1">
          <mxGeometry width="50" height="50" relative="1" as="geometry">
            <mxPoint x="290" y="180" as="sourcePoint" />
            <mxPoint x="340" y="130" as="targetPoint" />
          </mxGeometry>
        </mxCell>
        <mxCell id="75" value="" style="group" parent="1" vertex="1" connectable="0">
          <mxGeometry x="940" y="20" width="30" height="120" as="geometry" />
        </mxCell>
        <mxCell id="76" value="" style="shape=trapezoid;perimeter=trapezoidPerimeter;whiteSpace=wrap;html=1;fixedSize=1;fontSize=14;rotation=90;" parent="75" vertex="1">
          <mxGeometry x="-45" y="45" width="120" height="30" as="geometry" />
        </mxCell>
        <mxCell id="77" value="M&lt;br&gt;U&lt;br&gt;X" style="text;html=1;strokeColor=none;fillColor=none;align=center;verticalAlign=middle;whiteSpace=wrap;rounded=0;fontSize=14;" parent="75" vertex="1">
          <mxGeometry y="30" width="30" height="60" as="geometry" />
        </mxCell>
        <mxCell id="78" value="" style="group" parent="1" vertex="1" connectable="0">
          <mxGeometry x="1240" y="370" width="180" height="70" as="geometry" />
        </mxCell>
        <mxCell id="50" value="" style="rounded=0;whiteSpace=wrap;html=1;fontSize=14;" parent="78" vertex="1">
          <mxGeometry width="180" height="70" as="geometry" />
        </mxCell>
        <mxCell id="61" value="in" style="text;html=1;strokeColor=none;fillColor=none;align=center;verticalAlign=middle;whiteSpace=wrap;rounded=0;fontSize=14;" parent="78" vertex="1">
          <mxGeometry width="18" height="30" as="geometry" />
        </mxCell>
        <mxCell id="62" value="byte_n" style="text;html=1;strokeColor=none;fillColor=none;align=center;verticalAlign=middle;whiteSpace=wrap;rounded=0;fontSize=14;" parent="78" vertex="1">
          <mxGeometry y="40" width="45" height="30" as="geometry" />
        </mxCell>
        <mxCell id="63" value="mem_data" style="text;html=1;strokeColor=none;fillColor=none;align=center;verticalAlign=middle;whiteSpace=wrap;rounded=0;fontSize=14;" parent="78" vertex="1">
          <mxGeometry x="117" y="20" width="63" height="30" as="geometry" />
        </mxCell>
        <mxCell id="64" value="extend" style="text;html=1;strokeColor=none;fillColor=none;align=center;verticalAlign=middle;whiteSpace=wrap;rounded=0;fontSize=14;" parent="78" vertex="1">
          <mxGeometry x="45" y="10" width="54" height="30" as="geometry" />
        </mxCell>
        <mxCell id="237" value="&lt;font style=&quot;font-size: 14px;&quot;&gt;sign&lt;/font&gt;" style="text;html=1;strokeColor=none;fillColor=none;align=center;verticalAlign=middle;whiteSpace=wrap;rounded=0;" parent="78" vertex="1">
          <mxGeometry x="60" y="40" width="60" height="30" as="geometry" />
        </mxCell>
        <mxCell id="82" value="" style="edgeStyle=segmentEdgeStyle;endArrow=none;html=1;curved=0;rounded=0;endSize=8;startSize=8;fontSize=14;exitX=0.474;exitY=0.373;exitDx=0;exitDy=0;exitPerimeter=0;entryDx=0;entryDy=0;" parent="1" source="70" target="81" edge="1">
          <mxGeometry width="50" height="50" relative="1" as="geometry">
            <mxPoint x="139.99999999999977" y="224.17000000000007" as="sourcePoint" />
            <mxPoint x="229.99999999999977" y="40" as="targetPoint" />
            <Array as="points">
              <mxPoint x="160" y="224" />
            </Array>
          </mxGeometry>
        </mxCell>
        <mxCell id="81" value="" style="shape=waypoint;sketch=0;fillStyle=solid;size=6;pointerEvents=1;points=[];fillColor=none;resizable=0;rotatable=0;perimeter=centerPerimeter;snapToPoint=1;fontSize=14;" parent="1" vertex="1">
          <mxGeometry x="150" y="180" width="20" height="20" as="geometry" />
        </mxCell>
        <mxCell id="89" value="" style="endArrow=none;html=1;rounded=0;fontSize=14;startArrow=none;" parent="1" source="87" target="88" edge="1">
          <mxGeometry relative="1" as="geometry">
            <mxPoint x="359.9999999999998" y="480" as="sourcePoint" />
            <mxPoint x="359.9999999999998" y="224.17000000000007" as="targetPoint" />
          </mxGeometry>
        </mxCell>
        <mxCell id="88" value="" style="shape=waypoint;sketch=0;fillStyle=solid;size=6;pointerEvents=1;points=[];fillColor=none;resizable=0;rotatable=0;perimeter=centerPerimeter;snapToPoint=1;fontSize=14;" parent="1" vertex="1">
          <mxGeometry x="350" y="260" width="20" height="20" as="geometry" />
        </mxCell>
        <mxCell id="90" value="" style="endArrow=none;html=1;rounded=0;fontSize=14;startArrow=none;" parent="1" source="92" target="87" edge="1">
          <mxGeometry relative="1" as="geometry">
            <mxPoint x="359.9999999999998" y="480" as="sourcePoint" />
            <mxPoint x="359.9999999999998" y="266.1099999999997" as="targetPoint" />
          </mxGeometry>
        </mxCell>
        <mxCell id="87" value="" style="shape=waypoint;sketch=0;fillStyle=solid;size=6;pointerEvents=1;points=[];fillColor=none;resizable=0;rotatable=0;perimeter=centerPerimeter;snapToPoint=1;fontSize=14;" parent="1" vertex="1">
          <mxGeometry x="350" y="310" width="20" height="20" as="geometry" />
        </mxCell>
        <mxCell id="91" value="" style="endArrow=none;html=1;rounded=0;fontSize=14;startArrow=none;" parent="1" source="93" target="86" edge="1">
          <mxGeometry relative="1" as="geometry">
            <mxPoint x="359.9999999999998" y="480" as="sourcePoint" />
            <mxPoint x="359.9999999999998" y="314.4399999999996" as="targetPoint" />
          </mxGeometry>
        </mxCell>
        <mxCell id="86" value="" style="shape=waypoint;sketch=0;fillStyle=solid;size=6;pointerEvents=1;points=[];fillColor=none;resizable=0;rotatable=0;perimeter=centerPerimeter;snapToPoint=1;fontSize=14;" parent="1" vertex="1">
          <mxGeometry x="350" y="420" width="20" height="20" as="geometry" />
        </mxCell>
        <mxCell id="94" value="" style="endArrow=none;html=1;rounded=0;fontSize=14;" parent="1" target="93" edge="1">
          <mxGeometry relative="1" as="geometry">
            <mxPoint x="359.9999999999998" y="480" as="sourcePoint" />
            <mxPoint x="359.9999999999998" y="360" as="targetPoint" />
          </mxGeometry>
        </mxCell>
        <mxCell id="93" value="" style="shape=waypoint;sketch=0;fillStyle=solid;size=6;pointerEvents=1;points=[];fillColor=none;resizable=0;rotatable=0;perimeter=centerPerimeter;snapToPoint=1;fontSize=14;" parent="1" vertex="1">
          <mxGeometry x="350" y="470" width="20" height="20" as="geometry" />
        </mxCell>
        <mxCell id="95" value="" style="endArrow=none;html=1;rounded=0;fontSize=14;startArrow=none;" parent="1" source="86" target="92" edge="1">
          <mxGeometry relative="1" as="geometry">
            <mxPoint x="359.9999999999998" y="420" as="sourcePoint" />
            <mxPoint x="359.9999999999998" y="320" as="targetPoint" />
          </mxGeometry>
        </mxCell>
        <mxCell id="92" value="" style="shape=waypoint;sketch=0;fillStyle=solid;size=6;pointerEvents=1;points=[];fillColor=none;resizable=0;rotatable=0;perimeter=centerPerimeter;snapToPoint=1;fontSize=14;" parent="1" vertex="1">
          <mxGeometry x="350" y="370" width="20" height="20" as="geometry" />
        </mxCell>
        <mxCell id="96" value="" style="edgeStyle=elbowEdgeStyle;elbow=horizontal;endArrow=classic;html=1;curved=0;rounded=0;endSize=8;startSize=8;fontSize=14;entryX=0.662;entryY=1.056;entryDx=0;entryDy=0;entryPerimeter=0;" parent="1" source="11" target="87" edge="1">
          <mxGeometry width="50" height="50" relative="1" as="geometry">
            <mxPoint x="600" y="550" as="sourcePoint" />
            <mxPoint x="650" y="500" as="targetPoint" />
          </mxGeometry>
        </mxCell>
        <mxCell id="97" value="" style="edgeStyle=elbowEdgeStyle;elbow=horizontal;endArrow=classic;html=1;curved=0;rounded=0;endSize=8;startSize=8;fontSize=14;exitX=1.038;exitY=0.403;exitDx=0;exitDy=0;exitPerimeter=0;" parent="1" source="86" target="21" edge="1">
          <mxGeometry width="50" height="50" relative="1" as="geometry">
            <mxPoint x="600" y="390" as="sourcePoint" />
            <mxPoint x="650" y="340" as="targetPoint" />
            <Array as="points">
              <mxPoint x="440" y="470" />
            </Array>
          </mxGeometry>
        </mxCell>
        <mxCell id="98" value="" style="edgeStyle=elbowEdgeStyle;elbow=horizontal;endArrow=classic;html=1;curved=0;rounded=0;endSize=8;startSize=8;fontSize=14;exitX=1.085;exitY=0.597;exitDx=0;exitDy=0;exitPerimeter=0;" parent="1" source="92" target="20" edge="1">
          <mxGeometry width="50" height="50" relative="1" as="geometry">
            <mxPoint x="600" y="230" as="sourcePoint" />
            <mxPoint x="650" y="180" as="targetPoint" />
            <Array as="points">
              <mxPoint x="460" y="410" />
            </Array>
          </mxGeometry>
        </mxCell>
        <mxCell id="99" value="" style="edgeStyle=elbowEdgeStyle;elbow=horizontal;endArrow=classic;html=1;curved=0;rounded=0;endSize=8;startSize=8;fontSize=14;exitX=0.85;exitY=1.015;exitDx=0;exitDy=0;exitPerimeter=0;" parent="1" source="88" target="18" edge="1">
          <mxGeometry width="50" height="50" relative="1" as="geometry">
            <mxPoint x="600" y="230" as="sourcePoint" />
            <mxPoint x="650" y="180" as="targetPoint" />
            <Array as="points">
              <mxPoint x="480" y="330" />
            </Array>
          </mxGeometry>
        </mxCell>
        <mxCell id="101" value="" style="edgeStyle=segmentEdgeStyle;endArrow=classic;html=1;curved=0;rounded=0;endSize=8;startSize=8;fontSize=14;exitX=0.474;exitY=0.726;exitDx=0;exitDy=0;exitPerimeter=0;" parent="1" source="93" target="28" edge="1">
          <mxGeometry width="50" height="50" relative="1" as="geometry">
            <mxPoint x="600" y="550" as="sourcePoint" />
            <mxPoint x="650" y="500" as="targetPoint" />
            <Array as="points">
              <mxPoint x="360" y="635" />
            </Array>
          </mxGeometry>
        </mxCell>
        <mxCell id="108" value="" style="group" parent="1" vertex="1" connectable="0">
          <mxGeometry x="120" y="520" width="80" height="120" as="geometry" />
        </mxCell>
        <mxCell id="102" value="" style="ellipse;whiteSpace=wrap;html=1;fontSize=14;rotation=-90;" parent="108" vertex="1">
          <mxGeometry x="-20" y="20" width="120" height="80" as="geometry" />
        </mxCell>
        <mxCell id="106" value="Controler" style="text;html=1;strokeColor=none;fillColor=none;align=center;verticalAlign=middle;whiteSpace=wrap;rounded=0;fontSize=14;" parent="108" vertex="1">
          <mxGeometry x="10" y="45" width="60" height="30" as="geometry" />
        </mxCell>
        <mxCell id="109" value="" style="edgeStyle=segmentEdgeStyle;endArrow=classic;html=1;curved=0;rounded=0;endSize=8;startSize=8;fontSize=14;exitX=0.615;exitY=0.774;exitDx=0;exitDy=0;exitPerimeter=0;entryX=1;entryY=0.5;entryDx=0;entryDy=0;" parent="1" source="93" target="102" edge="1">
          <mxGeometry width="50" height="50" relative="1" as="geometry">
            <mxPoint x="600" y="390" as="sourcePoint" />
            <mxPoint x="650" y="340" as="targetPoint" />
          </mxGeometry>
        </mxCell>
        <mxCell id="115" value="" style="edgeStyle=elbowEdgeStyle;elbow=horizontal;endArrow=classic;html=1;curved=0;rounded=0;endSize=8;startSize=8;fontSize=14;exitDx=0;exitDy=0;entryX=0.75;entryY=1;entryDx=0;entryDy=0;startArrow=none;" parent="1" source="132" target="119" edge="1">
          <mxGeometry width="50" height="50" relative="1" as="geometry">
            <mxPoint x="760" y="600" as="sourcePoint" />
            <mxPoint x="730" y="199" as="targetPoint" />
            <Array as="points">
              <mxPoint x="710" y="450" />
            </Array>
          </mxGeometry>
        </mxCell>
        <mxCell id="116" value="" style="edgeStyle=elbowEdgeStyle;elbow=horizontal;endArrow=classic;html=1;curved=0;rounded=0;endSize=8;startSize=8;fontSize=14;entryX=0;entryY=0;entryDx=0;entryDy=0;startArrow=none;" parent="1" source="164" target="77" edge="1">
          <mxGeometry width="50" height="50" relative="1" as="geometry">
            <mxPoint x="510" y="-70" as="sourcePoint" />
            <mxPoint x="560" y="-120" as="targetPoint" />
          </mxGeometry>
        </mxCell>
        <mxCell id="118" value="" style="group" parent="1" vertex="1" connectable="0">
          <mxGeometry x="750" y="110" width="70" height="140" as="geometry" />
        </mxCell>
        <mxCell id="119" value="" style="shape=trapezoid;perimeter=trapezoidPerimeter;whiteSpace=wrap;html=1;fixedSize=1;fontSize=14;rotation=90;" parent="118" vertex="1">
          <mxGeometry x="-35" y="35" width="140" height="70" as="geometry" />
        </mxCell>
        <mxCell id="120" value="ADD" style="text;html=1;strokeColor=none;fillColor=none;align=center;verticalAlign=middle;whiteSpace=wrap;rounded=0;fontSize=14;" parent="118" vertex="1">
          <mxGeometry y="20" width="60" height="30" as="geometry" />
        </mxCell>
        <mxCell id="121" value="result" style="text;html=1;strokeColor=none;fillColor=none;align=center;verticalAlign=middle;whiteSpace=wrap;rounded=0;fontSize=14;" parent="118" vertex="1">
          <mxGeometry x="30" y="55" width="40" height="30" as="geometry" />
        </mxCell>
        <mxCell id="122" value="" style="edgeStyle=elbowEdgeStyle;elbow=horizontal;endArrow=classic;html=1;curved=0;rounded=0;endSize=8;startSize=8;fontSize=14;entryX=0;entryY=1;entryDx=0;entryDy=0;startArrow=none;" parent="1" source="163" target="77" edge="1">
          <mxGeometry width="50" height="50" relative="1" as="geometry">
            <mxPoint x="510" y="240" as="sourcePoint" />
            <mxPoint x="560" y="190" as="targetPoint" />
          </mxGeometry>
        </mxCell>
        <mxCell id="123" value="" style="group" parent="1" vertex="1" connectable="0">
          <mxGeometry x="1480" y="380" width="30" height="120" as="geometry" />
        </mxCell>
        <mxCell id="124" value="" style="shape=trapezoid;perimeter=trapezoidPerimeter;whiteSpace=wrap;html=1;fixedSize=1;fontSize=14;rotation=90;" parent="123" vertex="1">
          <mxGeometry x="-45" y="45" width="120" height="30" as="geometry" />
        </mxCell>
        <mxCell id="125" value="M&lt;br&gt;U&lt;br&gt;X" style="text;html=1;strokeColor=none;fillColor=none;align=center;verticalAlign=middle;whiteSpace=wrap;rounded=0;fontSize=14;" parent="123" vertex="1">
          <mxGeometry y="30" width="30" height="60" as="geometry" />
        </mxCell>
        <mxCell id="126" value="" style="group" parent="1" vertex="1" connectable="0">
          <mxGeometry x="780" y="390" width="30" height="120" as="geometry" />
        </mxCell>
        <mxCell id="127" value="" style="shape=trapezoid;perimeter=trapezoidPerimeter;whiteSpace=wrap;html=1;fixedSize=1;fontSize=14;rotation=90;" parent="126" vertex="1">
          <mxGeometry x="-45" y="45" width="120" height="30" as="geometry" />
        </mxCell>
        <mxCell id="128" value="M&lt;br&gt;U&lt;br&gt;X" style="text;html=1;strokeColor=none;fillColor=none;align=center;verticalAlign=middle;whiteSpace=wrap;rounded=0;fontSize=14;" parent="126" vertex="1">
          <mxGeometry y="30" width="30" height="60" as="geometry" />
        </mxCell>
        <mxCell id="129" value="" style="edgeStyle=elbowEdgeStyle;elbow=horizontal;endArrow=classic;html=1;curved=0;rounded=0;endSize=8;startSize=8;fontSize=14;entryX=0;entryY=0;entryDx=0;entryDy=0;startArrow=none;" parent="1" source="147" target="128" edge="1">
          <mxGeometry width="50" height="50" relative="1" as="geometry">
            <mxPoint x="510" y="240" as="sourcePoint" />
            <mxPoint x="560" y="190" as="targetPoint" />
          </mxGeometry>
        </mxCell>
        <mxCell id="133" value="" style="edgeStyle=elbowEdgeStyle;elbow=horizontal;endArrow=none;html=1;curved=0;rounded=0;endSize=8;startSize=8;fontSize=14;exitX=1;exitY=0.5;exitDx=0;exitDy=0;entryDx=0;entryDy=0;" parent="1" source="29" target="132" edge="1">
          <mxGeometry width="50" height="50" relative="1" as="geometry">
            <mxPoint x="669.9999999999998" y="695" as="sourcePoint" />
            <mxPoint x="750" y="215" as="targetPoint" />
            <Array as="points">
              <mxPoint x="710" y="530" />
            </Array>
          </mxGeometry>
        </mxCell>
        <mxCell id="132" value="" style="shape=waypoint;sketch=0;fillStyle=solid;size=6;pointerEvents=1;points=[];fillColor=none;resizable=0;rotatable=0;perimeter=centerPerimeter;snapToPoint=1;fontSize=14;" parent="1" vertex="1">
          <mxGeometry x="700" y="480" width="20" height="20" as="geometry" />
        </mxCell>
        <mxCell id="134" value="" style="edgeStyle=elbowEdgeStyle;elbow=horizontal;endArrow=classic;html=1;curved=0;rounded=0;endSize=8;startSize=8;fontSize=14;exitX=0.668;exitY=0.226;exitDx=0;exitDy=0;exitPerimeter=0;entryX=0;entryY=1;entryDx=0;entryDy=0;" parent="1" source="132" target="128" edge="1">
          <mxGeometry width="50" height="50" relative="1" as="geometry">
            <mxPoint x="510" y="400" as="sourcePoint" />
            <mxPoint x="560" y="350" as="targetPoint" />
          </mxGeometry>
        </mxCell>
        <mxCell id="135" value="" style="edgeStyle=elbowEdgeStyle;elbow=horizontal;endArrow=classic;html=1;curved=0;rounded=0;endSize=8;startSize=8;fontSize=14;entryX=0.25;entryY=1;entryDx=0;entryDy=0;" parent="1" source="22" target="42" edge="1">
          <mxGeometry width="50" height="50" relative="1" as="geometry">
            <mxPoint x="510" y="400" as="sourcePoint" />
            <mxPoint x="560" y="350" as="targetPoint" />
          </mxGeometry>
        </mxCell>
        <mxCell id="136" value="" style="edgeStyle=elbowEdgeStyle;elbow=horizontal;endArrow=classic;html=1;curved=0;rounded=0;endSize=8;startSize=8;fontSize=14;entryX=0.75;entryY=1;entryDx=0;entryDy=0;" parent="1" source="128" target="42" edge="1">
          <mxGeometry width="50" height="50" relative="1" as="geometry">
            <mxPoint x="510" y="400" as="sourcePoint" />
            <mxPoint x="560" y="350" as="targetPoint" />
          </mxGeometry>
        </mxCell>
        <mxCell id="137" value="" style="group" parent="1" vertex="1" connectable="0">
          <mxGeometry x="1080" y="360" width="120" height="200" as="geometry" />
        </mxCell>
        <mxCell id="138" value="" style="rounded=0;whiteSpace=wrap;html=1;fontSize=14;" parent="137" vertex="1">
          <mxGeometry width="120" height="200" as="geometry" />
        </mxCell>
        <mxCell id="139" value="addr" style="text;html=1;strokeColor=none;fillColor=none;align=center;verticalAlign=middle;whiteSpace=wrap;rounded=0;fontSize=14;" parent="137" vertex="1">
          <mxGeometry y="50" width="40" height="30" as="geometry" />
        </mxCell>
        <mxCell id="140" value="W_data" style="text;html=1;strokeColor=none;fillColor=none;align=center;verticalAlign=middle;whiteSpace=wrap;rounded=0;fontSize=14;" parent="137" vertex="1">
          <mxGeometry y="125" width="60" height="30" as="geometry" />
        </mxCell>
        <mxCell id="141" value="R_data" style="text;html=1;strokeColor=none;fillColor=none;align=center;verticalAlign=middle;whiteSpace=wrap;rounded=0;fontSize=14;" parent="137" vertex="1">
          <mxGeometry x="60" y="30" width="60" height="30" as="geometry" />
        </mxCell>
        <mxCell id="142" value="data_M" style="text;html=1;strokeColor=none;fillColor=none;align=center;verticalAlign=middle;whiteSpace=wrap;rounded=0;fontSize=14;" parent="137" vertex="1">
          <mxGeometry x="30" y="85" width="60" height="30" as="geometry" />
        </mxCell>
        <mxCell id="143" value="MemRW" style="text;html=1;strokeColor=none;fillColor=none;align=center;verticalAlign=middle;whiteSpace=wrap;rounded=0;fontSize=14;" parent="137" vertex="1">
          <mxGeometry x="30" y="170" width="60" height="30" as="geometry" />
        </mxCell>
        <mxCell id="148" value="" style="edgeStyle=elbowEdgeStyle;elbow=horizontal;endArrow=none;html=1;curved=0;rounded=0;endSize=8;startSize=8;fontSize=14;entryDx=0;entryDy=0;" parent="1" source="23" target="147" edge="1">
          <mxGeometry width="50" height="50" relative="1" as="geometry">
            <mxPoint x="669.9999999999998" y="425" as="sourcePoint" />
            <mxPoint x="780" y="420" as="targetPoint" />
          </mxGeometry>
        </mxCell>
        <mxCell id="147" value="" style="shape=waypoint;sketch=0;fillStyle=solid;size=6;pointerEvents=1;points=[];fillColor=none;resizable=0;rotatable=0;perimeter=centerPerimeter;snapToPoint=1;fontSize=14;" parent="1" vertex="1">
          <mxGeometry x="680" y="420" width="20" height="20" as="geometry" />
        </mxCell>
        <mxCell id="152" value="" style="edgeStyle=segmentEdgeStyle;endArrow=classic;html=1;curved=0;rounded=0;endSize=8;startSize=8;fontSize=14;exitX=0.962;exitY=0.711;exitDx=0;exitDy=0;exitPerimeter=0;" parent="1" source="147" target="140" edge="1">
          <mxGeometry width="50" height="50" relative="1" as="geometry">
            <mxPoint x="850" y="430" as="sourcePoint" />
            <mxPoint x="900" y="380" as="targetPoint" />
            <Array as="points">
              <mxPoint x="690" y="630" />
              <mxPoint x="1010" y="630" />
              <mxPoint x="1010" y="500" />
            </Array>
          </mxGeometry>
        </mxCell>
        <mxCell id="153" value="" style="edgeStyle=elbowEdgeStyle;elbow=horizontal;endArrow=classic;html=1;curved=0;rounded=0;endSize=8;startSize=8;fontSize=14;startArrow=none;" parent="1" source="154" target="139" edge="1">
          <mxGeometry width="50" height="50" relative="1" as="geometry">
            <mxPoint x="850" y="270" as="sourcePoint" />
            <mxPoint x="900" y="220" as="targetPoint" />
          </mxGeometry>
        </mxCell>
        <mxCell id="155" value="" style="edgeStyle=elbowEdgeStyle;elbow=horizontal;endArrow=none;html=1;curved=0;rounded=0;endSize=8;startSize=8;fontSize=14;" parent="1" source="44" target="154" edge="1">
          <mxGeometry width="50" height="50" relative="1" as="geometry">
            <mxPoint x="1000" y="425" as="sourcePoint" />
            <mxPoint x="1080" y="425" as="targetPoint" />
          </mxGeometry>
        </mxCell>
        <mxCell id="154" value="" style="shape=waypoint;sketch=0;fillStyle=solid;size=6;pointerEvents=1;points=[];fillColor=none;resizable=0;rotatable=0;perimeter=centerPerimeter;snapToPoint=1;fontSize=14;" parent="1" vertex="1">
          <mxGeometry x="1030" y="415" width="20" height="20" as="geometry" />
        </mxCell>
        <mxCell id="159" value="" style="edgeStyle=segmentEdgeStyle;endArrow=classic;html=1;curved=0;rounded=0;endSize=8;startSize=8;fontSize=14;exitDx=0;exitDy=0;exitPerimeter=0;entryX=0;entryY=0.75;entryDx=0;entryDy=0;" parent="1" source="Lt8gEe2-x3sQ-WM6EQ1x-240" target="125" edge="1">
          <mxGeometry width="50" height="50" relative="1" as="geometry">
            <mxPoint x="850" y="430" as="sourcePoint" />
            <mxPoint x="1260" y="470" as="targetPoint" />
            <Array as="points">
              <mxPoint x="1040" y="620" />
              <mxPoint x="1220" y="620" />
              <mxPoint x="1220" y="460" />
              <mxPoint x="1260" y="460" />
              <mxPoint x="1260" y="455" />
            </Array>
          </mxGeometry>
        </mxCell>
        <mxCell id="162" value="" style="edgeStyle=elbowEdgeStyle;elbow=horizontal;endArrow=classic;html=1;curved=0;rounded=0;endSize=8;startSize=8;fontSize=14;exitX=0.874;exitY=0.758;exitDx=0;exitDy=0;exitPerimeter=0;" parent="1" source="81" target="120" edge="1">
          <mxGeometry width="50" height="50" relative="1" as="geometry">
            <mxPoint x="470" y="270" as="sourcePoint" />
            <mxPoint x="520" y="220" as="targetPoint" />
          </mxGeometry>
        </mxCell>
        <mxCell id="165" value="" style="edgeStyle=elbowEdgeStyle;elbow=horizontal;endArrow=none;html=1;curved=0;rounded=0;endSize=8;startSize=8;fontSize=14;entryDx=0;entryDy=0;" parent="1" source="39" target="164" edge="1">
          <mxGeometry width="50" height="50" relative="1" as="geometry">
            <mxPoint x="299.9999999999998" y="90" as="sourcePoint" />
            <mxPoint x="940" y="50" as="targetPoint" />
          </mxGeometry>
        </mxCell>
        <mxCell id="164" value="" style="shape=waypoint;sketch=0;fillStyle=solid;size=6;pointerEvents=1;points=[];fillColor=none;resizable=0;rotatable=0;perimeter=centerPerimeter;snapToPoint=1;fontSize=14;" parent="1" vertex="1">
          <mxGeometry x="835" y="40" width="20" height="20" as="geometry" />
        </mxCell>
        <mxCell id="166" value="" style="edgeStyle=elbowEdgeStyle;elbow=horizontal;endArrow=none;html=1;curved=0;rounded=0;endSize=8;startSize=8;fontSize=14;entryDx=0;entryDy=0;" parent="1" source="121" target="163" edge="1">
          <mxGeometry width="50" height="50" relative="1" as="geometry">
            <mxPoint x="820" y="180" as="sourcePoint" />
            <mxPoint x="940" y="110" as="targetPoint" />
          </mxGeometry>
        </mxCell>
        <mxCell id="163" value="" style="shape=waypoint;sketch=0;fillStyle=solid;size=6;pointerEvents=1;points=[];fillColor=none;resizable=0;rotatable=0;perimeter=centerPerimeter;snapToPoint=1;fontSize=14;" parent="1" vertex="1">
          <mxGeometry x="870" y="145" width="20" height="20" as="geometry" />
        </mxCell>
        <mxCell id="174" value="" style="edgeStyle=segmentEdgeStyle;endArrow=classic;html=1;curved=0;rounded=0;endSize=8;startSize=8;fontSize=14;exitX=0.356;exitY=0.721;exitDx=0;exitDy=0;exitPerimeter=0;entryX=0;entryY=0.5;entryDx=0;entryDy=0;" parent="1" source="163" target="125" edge="1">
          <mxGeometry width="50" height="50" relative="1" as="geometry">
            <mxPoint x="1130" y="200" as="sourcePoint" />
            <mxPoint x="1180" y="150" as="targetPoint" />
            <Array as="points">
              <mxPoint x="880" y="230" />
              <mxPoint x="1430" y="230" />
              <mxPoint x="1430" y="440" />
            </Array>
          </mxGeometry>
        </mxCell>
        <mxCell id="176" value="" style="edgeStyle=segmentEdgeStyle;endArrow=classic;html=1;curved=0;rounded=0;endSize=8;startSize=8;fontSize=14;exitX=0.365;exitY=0.982;exitDx=0;exitDy=0;exitPerimeter=0;entryX=0;entryY=0.25;entryDx=0;entryDy=0;" parent="1" source="164" target="125" edge="1">
          <mxGeometry width="50" height="50" relative="1" as="geometry">
            <mxPoint x="1130" y="200" as="sourcePoint" />
            <mxPoint x="1180" y="150" as="targetPoint" />
            <Array as="points">
              <mxPoint x="845" y="290" />
              <mxPoint x="1450" y="290" />
              <mxPoint x="1450" y="425" />
            </Array>
          </mxGeometry>
        </mxCell>
        <mxCell id="180" value="" style="edgeStyle=elbowEdgeStyle;elbow=horizontal;endArrow=classic;html=1;curved=0;rounded=0;endSize=8;startSize=8;fontSize=14;" parent="1" source="141" target="61" edge="1">
          <mxGeometry width="50" height="50" relative="1" as="geometry">
            <mxPoint x="1080" y="510" as="sourcePoint" />
            <mxPoint x="1130" y="460" as="targetPoint" />
          </mxGeometry>
        </mxCell>
        <mxCell id="181" value="" style="edgeStyle=elbowEdgeStyle;elbow=horizontal;endArrow=classic;html=1;curved=0;rounded=0;endSize=8;startSize=8;fontSize=14;entryX=0;entryY=0;entryDx=0;entryDy=0;" parent="1" source="63" target="125" edge="1">
          <mxGeometry width="50" height="50" relative="1" as="geometry">
            <mxPoint x="1080" y="510" as="sourcePoint" />
            <mxPoint x="1130" y="460" as="targetPoint" />
            <Array as="points">
              <mxPoint x="1440" y="420" />
            </Array>
          </mxGeometry>
        </mxCell>
        <mxCell id="182" value="" style="edgeStyle=segmentEdgeStyle;endArrow=classic;html=1;curved=0;rounded=0;endSize=8;startSize=8;fontSize=14;exitX=1;exitY=0.5;exitDx=0;exitDy=0;" parent="1" source="125" target="19" edge="1">
          <mxGeometry width="50" height="50" relative="1" as="geometry">
            <mxPoint x="1663.7647920496324" y="450" as="sourcePoint" />
            <mxPoint x="430" y="500" as="targetPoint" />
            <Array as="points">
              <mxPoint x="1560" y="440" />
              <mxPoint x="1560" y="810" />
              <mxPoint x="430" y="810" />
              <mxPoint x="430" y="505" />
              <mxPoint x="520" y="505" />
              <mxPoint x="520" y="512" />
            </Array>
          </mxGeometry>
        </mxCell>
        <mxCell id="185" value="" style="edgeStyle=segmentEdgeStyle;endArrow=classic;html=1;curved=0;rounded=0;endSize=8;startSize=8;fontSize=14;exitDx=0;exitDy=0;exitPerimeter=0;startArrow=none;entryX=0.25;entryY=1;entryDx=0;entryDy=0;" parent="1" source="192" target="Lt8gEe2-x3sQ-WM6EQ1x-238" edge="1">
          <mxGeometry width="50" height="50" relative="1" as="geometry">
            <mxPoint x="1120" y="120" as="sourcePoint" />
            <mxPoint x="990" y="120" as="targetPoint" />
            <Array as="points">
              <mxPoint x="980" y="190" />
              <mxPoint x="980" y="130" />
            </Array>
          </mxGeometry>
        </mxCell>
        <mxCell id="186" value="" style="edgeStyle=elbowEdgeStyle;elbow=horizontal;endArrow=classic;html=1;curved=0;rounded=0;endSize=8;startSize=8;fontSize=14;exitX=1;exitY=0.5;exitDx=0;exitDy=0;entryX=0;entryY=0;entryDx=0;entryDy=0;" parent="1" source="77" target="48" edge="1">
          <mxGeometry width="50" height="50" relative="1" as="geometry">
            <mxPoint x="1120" y="-40" as="sourcePoint" />
            <mxPoint x="1170" y="-90" as="targetPoint" />
          </mxGeometry>
        </mxCell>
        <mxCell id="187" value="" style="edgeStyle=segmentEdgeStyle;endArrow=classic;html=1;curved=0;rounded=0;endSize=8;startSize=8;fontSize=14;exitX=1;exitY=0.5;exitDx=0;exitDy=0;" parent="1" source="48" target="6" edge="1">
          <mxGeometry width="50" height="50" relative="1" as="geometry">
            <mxPoint x="1140" y="-50" as="sourcePoint" />
            <mxPoint x="30" y="230" as="targetPoint" />
            <Array as="points">
              <mxPoint x="1160" y="80" />
              <mxPoint x="1160" y="-10" />
              <mxPoint x="30" y="-10" />
              <mxPoint x="30" y="225" />
            </Array>
          </mxGeometry>
        </mxCell>
        <mxCell id="188" value="" style="shape=or;whiteSpace=wrap;html=1;fontSize=14;" parent="1" vertex="1">
          <mxGeometry x="1030" y="320" width="30" height="40" as="geometry" />
        </mxCell>
        <mxCell id="190" value="" style="edgeStyle=elbowEdgeStyle;elbow=horizontal;endArrow=classic;html=1;curved=0;rounded=0;endSize=8;startSize=8;fontSize=14;exitX=1;exitY=0.5;exitDx=0;exitDy=0;entryX=0;entryY=0.25;entryDx=0;entryDy=0;entryPerimeter=0;" parent="1" source="45" target="188" edge="1">
          <mxGeometry width="50" height="50" relative="1" as="geometry">
            <mxPoint x="920" y="270" as="sourcePoint" />
            <mxPoint x="970" y="220" as="targetPoint" />
          </mxGeometry>
        </mxCell>
        <mxCell id="191" value="" style="edgeStyle=segmentEdgeStyle;endArrow=classic;html=1;curved=0;rounded=0;endSize=8;startSize=8;fontSize=14;exitX=1;exitY=0.5;exitDx=0;exitDy=0;exitPerimeter=0;entryX=1;entryY=0.5;entryDx=0;entryDy=0;" parent="1" source="188" target="76" edge="1">
          <mxGeometry width="50" height="50" relative="1" as="geometry">
            <mxPoint x="920" y="270" as="sourcePoint" />
            <mxPoint x="970" y="220" as="targetPoint" />
            <Array as="points">
              <mxPoint x="1080" y="340" />
              <mxPoint x="1080" y="260" />
              <mxPoint x="955" y="260" />
            </Array>
          </mxGeometry>
        </mxCell>
        <mxCell id="194" value="" style="edgeStyle=segmentEdgeStyle;endArrow=none;html=1;curved=0;rounded=0;endSize=8;startSize=8;fontSize=14;exitX=0.732;exitY=0.391;exitDx=0;exitDy=0;exitPerimeter=0;entryDx=0;entryDy=0;" parent="1" source="163" target="192" edge="1">
          <mxGeometry width="50" height="50" relative="1" as="geometry">
            <mxPoint x="880" y="155" as="sourcePoint" />
            <mxPoint x="1090" y="110" as="targetPoint" />
            <Array as="points" />
          </mxGeometry>
        </mxCell>
        <mxCell id="192" value="" style="shape=waypoint;sketch=0;fillStyle=solid;size=6;pointerEvents=1;points=[];fillColor=none;resizable=0;rotatable=0;perimeter=centerPerimeter;snapToPoint=1;fontSize=14;" parent="1" vertex="1">
          <mxGeometry x="870" y="180" width="20" height="20" as="geometry" />
        </mxCell>
        <mxCell id="195" value="" style="edgeStyle=elbowEdgeStyle;elbow=horizontal;endArrow=classic;html=1;curved=0;rounded=0;endSize=8;startSize=8;fontSize=14;exitX=0.013;exitY=0.64;exitDx=0;exitDy=0;exitPerimeter=0;entryX=0;entryY=0.75;entryDx=0;entryDy=0;" parent="1" source="102" target="31" edge="1">
          <mxGeometry width="50" height="50" relative="1" as="geometry">
            <mxPoint x="420" y="660" as="sourcePoint" />
            <mxPoint x="470" y="610" as="targetPoint" />
          </mxGeometry>
        </mxCell>
        <mxCell id="196" value="" style="edgeStyle=elbowEdgeStyle;elbow=horizontal;endArrow=classic;html=1;curved=0;rounded=0;endSize=8;startSize=8;fontSize=14;exitX=0;exitY=1;exitDx=0;exitDy=0;entryX=0;entryY=0.5;entryDx=0;entryDy=0;" parent="1" source="102" target="33" edge="1">
          <mxGeometry width="50" height="50" relative="1" as="geometry">
            <mxPoint x="420" y="660" as="sourcePoint" />
            <mxPoint x="470" y="610" as="targetPoint" />
          </mxGeometry>
        </mxCell>
        <mxCell id="198" value="" style="edgeStyle=segmentEdgeStyle;endArrow=classic;html=1;curved=0;rounded=0;endSize=8;startSize=8;fontSize=14;exitX=0.5;exitY=1;exitDx=0;exitDy=0;entryX=0.5;entryY=1;entryDx=0;entryDy=0;" parent="1" source="102" target="16" edge="1">
          <mxGeometry width="50" height="50" relative="1" as="geometry">
            <mxPoint x="420" y="510" as="sourcePoint" />
            <mxPoint x="470" y="460" as="targetPoint" />
          </mxGeometry>
        </mxCell>
        <mxCell id="199" value="RegW" style="text;html=1;strokeColor=none;fillColor=none;align=center;verticalAlign=middle;whiteSpace=wrap;rounded=0;fontSize=14;" parent="1" vertex="1">
          <mxGeometry x="200" y="560" width="60" height="30" as="geometry" />
        </mxCell>
        <mxCell id="211" value="sign" style="text;html=1;strokeColor=none;fillColor=none;align=center;verticalAlign=middle;whiteSpace=wrap;rounded=0;fontSize=14;" parent="1" vertex="1">
          <mxGeometry x="190" y="630" width="60" height="30" as="geometry" />
        </mxCell>
        <mxCell id="212" value="ImmSell" style="text;html=1;strokeColor=none;fillColor=none;align=center;verticalAlign=middle;whiteSpace=wrap;rounded=0;fontSize=14;" parent="1" vertex="1">
          <mxGeometry x="200" y="590" width="60" height="30" as="geometry" />
        </mxCell>
        <mxCell id="213" value="inst[31:0]" style="text;html=1;strokeColor=none;fillColor=none;align=center;verticalAlign=middle;whiteSpace=wrap;rounded=0;fontSize=14;" parent="1" vertex="1">
          <mxGeometry x="100" y="480" width="60" height="30" as="geometry" />
        </mxCell>
        <mxCell id="214" value="inst[19:15]" style="text;html=1;strokeColor=none;fillColor=none;align=center;verticalAlign=middle;whiteSpace=wrap;rounded=0;fontSize=14;" parent="1" vertex="1">
          <mxGeometry x="380" y="250.00000000000003" width="60" height="30" as="geometry" />
        </mxCell>
        <mxCell id="215" value="inst[11:7]" style="text;html=1;strokeColor=none;fillColor=none;align=center;verticalAlign=middle;whiteSpace=wrap;rounded=0;fontSize=14;" parent="1" vertex="1">
          <mxGeometry x="370" y="405" width="60" height="30" as="geometry" />
        </mxCell>
        <mxCell id="216" value="inst[24:20]" style="text;html=1;strokeColor=none;fillColor=none;align=center;verticalAlign=middle;whiteSpace=wrap;rounded=0;fontSize=14;" parent="1" vertex="1">
          <mxGeometry x="380" y="355" width="60" height="30" as="geometry" />
        </mxCell>
        <mxCell id="217" value="inst[31:0]" style="text;html=1;strokeColor=none;fillColor=none;align=center;verticalAlign=middle;whiteSpace=wrap;rounded=0;fontSize=14;" parent="1" vertex="1">
          <mxGeometry x="370" y="610" width="60" height="30" as="geometry" />
        </mxCell>
        <mxCell id="218" value="" style="edgeStyle=segmentEdgeStyle;endArrow=classic;html=1;curved=0;rounded=0;endSize=8;startSize=8;fontSize=14;exitX=0;exitY=0;exitDx=0;exitDy=0;entryX=0.5;entryY=1;entryDx=0;entryDy=0;" parent="1" source="102" target="143" edge="1">
          <mxGeometry width="50" height="50" relative="1" as="geometry">
            <mxPoint x="570" y="640" as="sourcePoint" />
            <mxPoint x="620" y="590" as="targetPoint" />
            <Array as="points">
              <mxPoint x="70" y="622" />
              <mxPoint x="70" y="880" />
              <mxPoint x="1140" y="880" />
            </Array>
          </mxGeometry>
        </mxCell>
        <mxCell id="221" value="MemRW" style="text;html=1;strokeColor=none;fillColor=none;align=center;verticalAlign=middle;whiteSpace=wrap;rounded=0;fontSize=14;" parent="1" vertex="1">
          <mxGeometry x="60" y="590" width="60" height="30" as="geometry" />
        </mxCell>
        <mxCell id="222" value="" style="edgeStyle=segmentEdgeStyle;endArrow=classic;html=1;curved=0;rounded=0;endSize=8;startSize=8;fontSize=14;entryX=0;entryY=0.75;entryDx=0;entryDy=0;entryPerimeter=0;exitX=0.5;exitY=0;exitDx=0;exitDy=0;" parent="1" source="102" target="188" edge="1">
          <mxGeometry width="50" height="50" relative="1" as="geometry">
            <mxPoint x="830" y="790" as="sourcePoint" />
            <mxPoint x="760" y="490" as="targetPoint" />
            <Array as="points">
              <mxPoint x="40" y="580" />
              <mxPoint x="40" y="930" />
              <mxPoint x="1020" y="930" />
              <mxPoint x="1020" y="350" />
            </Array>
          </mxGeometry>
        </mxCell>
        <mxCell id="223" value="" style="edgeStyle=segmentEdgeStyle;endArrow=classic;html=1;curved=0;rounded=0;endSize=8;startSize=8;fontSize=14;entryX=1;entryY=0.5;entryDx=0;entryDy=0;exitX=0.031;exitY=0.246;exitDx=0;exitDy=0;exitPerimeter=0;" parent="1" source="102" target="42" edge="1">
          <mxGeometry width="50" height="50" relative="1" as="geometry">
            <mxPoint x="750" y="580" as="sourcePoint" />
            <mxPoint x="800" y="530" as="targetPoint" />
            <Array as="points">
              <mxPoint x="132" y="636" />
              <mxPoint x="132" y="850" />
              <mxPoint x="965" y="850" />
            </Array>
          </mxGeometry>
        </mxCell>
        <mxCell id="224" value="" style="edgeStyle=segmentEdgeStyle;endArrow=classic;html=1;curved=0;rounded=0;endSize=8;startSize=8;fontSize=14;entryX=1;entryY=0.5;entryDx=0;entryDy=0;exitX=0;exitY=0.5;exitDx=0;exitDy=0;" parent="1" target="47" edge="1">
          <mxGeometry width="50" height="50" relative="1" as="geometry">
            <mxPoint x="165.04" y="640.04" as="sourcePoint" />
            <mxPoint x="1110.0399999999997" y="130.04" as="targetPoint" />
            <Array as="points">
              <mxPoint x="165" y="830" />
              <mxPoint x="1215" y="830" />
              <mxPoint x="1215" y="130" />
            </Array>
          </mxGeometry>
        </mxCell>
        <mxCell id="225" value="OPcode" style="text;html=1;strokeColor=none;fillColor=none;align=center;verticalAlign=middle;whiteSpace=wrap;rounded=0;fontSize=14;" parent="1" vertex="1">
          <mxGeometry x="130" y="820" width="60" height="30" as="geometry" />
        </mxCell>
        <mxCell id="227" value="jump" style="text;html=1;strokeColor=none;fillColor=none;align=center;verticalAlign=middle;whiteSpace=wrap;rounded=0;fontSize=14;" parent="1" vertex="1">
          <mxGeometry x="190" y="800" width="60" height="30" as="geometry" />
        </mxCell>
        <mxCell id="228" value="branch" style="text;html=1;strokeColor=none;fillColor=none;align=center;verticalAlign=middle;whiteSpace=wrap;rounded=0;fontSize=14;" parent="1" vertex="1">
          <mxGeometry x="55" y="550" width="60" height="30" as="geometry" />
        </mxCell>
        <mxCell id="229" value="" style="edgeStyle=segmentEdgeStyle;endArrow=classic;html=1;curved=0;rounded=0;endSize=8;startSize=8;fontSize=14;entryX=1;entryY=0.5;entryDx=0;entryDy=0;exitX=1;exitY=0;exitDx=0;exitDy=0;" parent="1" source="102" target="124" edge="1">
          <mxGeometry width="50" height="50" relative="1" as="geometry">
            <mxPoint x="10" y="1010" as="sourcePoint" />
            <mxPoint x="930" y="530" as="targetPoint" />
            <Array as="points">
              <mxPoint x="10" y="538" />
              <mxPoint x="10" y="980" />
              <mxPoint x="1495" y="980" />
            </Array>
          </mxGeometry>
        </mxCell>
        <mxCell id="230" value="" style="edgeStyle=segmentEdgeStyle;endArrow=classic;html=1;curved=0;rounded=0;endSize=8;startSize=8;fontSize=14;entryX=0;entryY=0.5;entryDx=0;entryDy=0;exitX=1;exitY=1;exitDx=0;exitDy=0;" parent="1" source="102" target="62" edge="1">
          <mxGeometry width="50" height="50" relative="1" as="geometry">
            <mxPoint x="270" y="540" as="sourcePoint" />
            <mxPoint x="1320" y="620" as="targetPoint" />
            <Array as="points">
              <mxPoint x="270" y="538" />
              <mxPoint x="270" y="600" />
              <mxPoint x="1210" y="600" />
              <mxPoint x="1210" y="420" />
            </Array>
          </mxGeometry>
        </mxCell>
        <mxCell id="231" value="" style="edgeStyle=segmentEdgeStyle;endArrow=classic;html=1;curved=0;rounded=0;endSize=8;startSize=8;fontSize=14;entryX=1;entryY=0.5;entryDx=0;entryDy=0;" parent="1" target="127" edge="1">
          <mxGeometry width="50" height="50" relative="1" as="geometry">
            <mxPoint x="150" y="640" as="sourcePoint" />
            <mxPoint x="930" y="530" as="targetPoint" />
            <Array as="points">
              <mxPoint x="795" y="720" />
            </Array>
          </mxGeometry>
        </mxCell>
        <mxCell id="233" value="&lt;div style=&quot;font-family: Consolas, &amp;quot;Courier New&amp;quot;, monospace; line-height: 19px;&quot;&gt;&lt;span style=&quot;background-color: rgb(255, 255, 255);&quot;&gt;ALUSrc_B&lt;/span&gt;&lt;/div&gt;" style="text;html=1;strokeColor=none;fillColor=none;align=center;verticalAlign=middle;whiteSpace=wrap;rounded=0;fontSize=14;" parent="1" vertex="1">
          <mxGeometry x="170" y="690" width="60" height="30" as="geometry" />
        </mxCell>
        <mxCell id="235" value="&lt;div style=&quot;font-family: Consolas, &amp;quot;Courier New&amp;quot;, monospace; line-height: 19px;&quot;&gt;&lt;span style=&quot;background-color: rgb(255, 255, 255);&quot;&gt;MemtoReg&lt;/span&gt;&lt;/div&gt;" style="text;html=1;strokeColor=none;fillColor=none;align=center;verticalAlign=middle;whiteSpace=wrap;rounded=0;fontSize=14;" parent="1" vertex="1">
          <mxGeometry x="55" y="510" width="60" height="30" as="geometry" />
        </mxCell>
        <mxCell id="236" value="byte_n" style="text;html=1;strokeColor=none;fillColor=none;align=center;verticalAlign=middle;whiteSpace=wrap;rounded=0;fontSize=14;" parent="1" vertex="1">
          <mxGeometry x="200" y="510" width="60" height="30" as="geometry" />
        </mxCell>
        <mxCell id="Lt8gEe2-x3sQ-WM6EQ1x-237" value="" style="group" parent="1" vertex="1" connectable="0">
          <mxGeometry x="1030" y="100" width="30" height="120" as="geometry" />
        </mxCell>
        <mxCell id="Lt8gEe2-x3sQ-WM6EQ1x-238" value="" style="shape=trapezoid;perimeter=trapezoidPerimeter;whiteSpace=wrap;html=1;fixedSize=1;fontSize=14;rotation=90;" parent="Lt8gEe2-x3sQ-WM6EQ1x-237" vertex="1">
          <mxGeometry x="-45" y="45" width="120" height="30" as="geometry" />
        </mxCell>
        <mxCell id="Lt8gEe2-x3sQ-WM6EQ1x-239" value="M&lt;br&gt;U&lt;br&gt;X" style="text;html=1;strokeColor=none;fillColor=none;align=center;verticalAlign=middle;whiteSpace=wrap;rounded=0;fontSize=14;" parent="Lt8gEe2-x3sQ-WM6EQ1x-237" vertex="1">
          <mxGeometry y="30" width="30" height="60" as="geometry" />
        </mxCell>
        <mxCell id="Lt8gEe2-x3sQ-WM6EQ1x-240" value="" style="shape=waypoint;sketch=0;fillStyle=solid;size=6;pointerEvents=1;points=[];fillColor=none;resizable=0;rotatable=0;perimeter=centerPerimeter;snapToPoint=1;" parent="1" vertex="1">
          <mxGeometry x="1030" y="535" width="20" height="20" as="geometry" />
        </mxCell>
        <mxCell id="Lt8gEe2-x3sQ-WM6EQ1x-244" value="" style="endArrow=none;html=1;rounded=0;exitX=0.733;exitY=0.443;exitDx=0;exitDy=0;exitPerimeter=0;entryX=0.559;entryY=1.017;entryDx=0;entryDy=0;entryPerimeter=0;" parent="1" source="Lt8gEe2-x3sQ-WM6EQ1x-240" target="154" edge="1">
          <mxGeometry width="50" height="50" relative="1" as="geometry">
            <mxPoint x="1050" y="470" as="sourcePoint" />
            <mxPoint x="1100" y="420" as="targetPoint" />
          </mxGeometry>
        </mxCell>
        <mxCell id="Lt8gEe2-x3sQ-WM6EQ1x-245" value="" style="edgeStyle=segmentEdgeStyle;endArrow=classic;html=1;curved=0;rounded=0;endSize=8;startSize=8;exitX=0.837;exitY=0.791;exitDx=0;exitDy=0;exitPerimeter=0;entryX=0.829;entryY=1.022;entryDx=0;entryDy=0;entryPerimeter=0;" parent="1" source="Lt8gEe2-x3sQ-WM6EQ1x-240" target="Lt8gEe2-x3sQ-WM6EQ1x-238" edge="1">
          <mxGeometry width="50" height="50" relative="1" as="geometry">
            <mxPoint x="1050" y="470" as="sourcePoint" />
            <mxPoint x="900" y="200" as="targetPoint" />
            <Array as="points">
              <mxPoint x="900" y="545" />
              <mxPoint x="900" y="200" />
            </Array>
          </mxGeometry>
        </mxCell>
        <mxCell id="Lt8gEe2-x3sQ-WM6EQ1x-246" value="" style="edgeStyle=elbowEdgeStyle;elbow=horizontal;endArrow=classic;html=1;curved=0;rounded=0;endSize=8;startSize=8;exitX=1;exitY=0.5;exitDx=0;exitDy=0;entryX=0.75;entryY=1;entryDx=0;entryDy=0;" parent="1" source="Lt8gEe2-x3sQ-WM6EQ1x-239" target="47" edge="1">
          <mxGeometry width="50" height="50" relative="1" as="geometry">
            <mxPoint x="1050" y="280" as="sourcePoint" />
            <mxPoint x="1100" y="230" as="targetPoint" />
          </mxGeometry>
        </mxCell>
        <mxCell id="Lt8gEe2-x3sQ-WM6EQ1x-247" value="" style="edgeStyle=segmentEdgeStyle;endArrow=classic;html=1;curved=0;rounded=0;endSize=8;startSize=8;entryX=1;entryY=0.5;entryDx=0;entryDy=0;exitX=0.979;exitY=0.763;exitDx=0;exitDy=0;exitPerimeter=0;" parent="1" source="102" target="Lt8gEe2-x3sQ-WM6EQ1x-238" edge="1">
          <mxGeometry width="50" height="50" relative="1" as="geometry">
            <mxPoint x="970" y="680" as="sourcePoint" />
            <mxPoint x="1020" y="630" as="targetPoint" />
            <Array as="points">
              <mxPoint x="184" y="523" />
              <mxPoint x="184" y="200" />
              <mxPoint x="620" y="200" />
              <mxPoint x="620" y="280" />
              <mxPoint x="1045" y="280" />
            </Array>
          </mxGeometry>
        </mxCell>
        <mxCell id="Lt8gEe2-x3sQ-WM6EQ1x-248" value="&lt;font style=&quot;font-size: 14px;&quot;&gt;jump_choose&lt;/font&gt;" style="text;html=1;align=center;verticalAlign=middle;whiteSpace=wrap;rounded=0;" parent="1" vertex="1">
          <mxGeometry x="120" y="425" width="60" height="30" as="geometry" />
        </mxCell>
        <mxCell id="Lt8gEe2-x3sQ-WM6EQ1x-249" value="" style="edgeStyle=segmentEdgeStyle;endArrow=classic;html=1;curved=0;rounded=0;endSize=8;startSize=8;entryX=0.5;entryY=1;entryDx=0;entryDy=0;" parent="1" target="237" edge="1">
          <mxGeometry width="50" height="50" relative="1" as="geometry">
            <mxPoint x="140" y="630" as="sourcePoint" />
            <mxPoint x="880" y="720" as="targetPoint" />
            <Array as="points">
              <mxPoint x="124" y="780" />
              <mxPoint x="1330" y="780" />
            </Array>
          </mxGeometry>
        </mxCell>
        <mxCell id="Lt8gEe2-x3sQ-WM6EQ1x-251" value="sign" style="text;html=1;align=center;verticalAlign=middle;whiteSpace=wrap;rounded=0;" parent="1" vertex="1">
          <mxGeometry x="180" y="750" width="60" height="30" as="geometry" />
        </mxCell>
        <mxCell id="rHV65e1HVUaXrl63tGUw-237" value="shift" style="text;html=1;align=center;verticalAlign=middle;whiteSpace=wrap;rounded=0;" vertex="1" parent="1">
          <mxGeometry x="1020" y="400" width="60" height="20" as="geometry" />
        </mxCell>
        <mxCell id="rHV65e1HVUaXrl63tGUw-238" value="shift" style="text;html=1;align=center;verticalAlign=middle;whiteSpace=wrap;rounded=0;" vertex="1" parent="1">
          <mxGeometry x="1020" y="480" width="60" height="20" as="geometry" />
        </mxCell>
        <mxCell id="rHV65e1HVUaXrl63tGUw-239" value="shift" style="text;html=1;align=center;verticalAlign=middle;whiteSpace=wrap;rounded=0;" vertex="1" parent="1">
          <mxGeometry x="1210" y="350" width="60" height="20" as="geometry" />
        </mxCell>
        <mxCell id="rHV65e1HVUaXrl63tGUw-240" value="shift" style="text;html=1;align=center;verticalAlign=middle;whiteSpace=wrap;rounded=0;" vertex="1" parent="1">
          <mxGeometry x="1090" y="560" width="60" height="20" as="geometry" />
        </mxCell>
        <mxCell id="rHV65e1HVUaXrl63tGUw-241" value="&lt;span style=&quot;font-size: 14px;&quot;&gt;inst&lt;/span&gt;" style="rounded=0;whiteSpace=wrap;html=1;" vertex="1" parent="1">
          <mxGeometry x="250" y="445" width="50" height="70" as="geometry" />
        </mxCell>
      </root>
    </mxGraphModel>
  </diagram>
</mxfile>
